<?xml version="1.0"?>
<svg xmlns="http://www.w3.org/2000/svg" width="512px" height="512px" viewBox="0 0 128 128"><g><g><path d="M105.1,86.759a18.173,18.173,0,0,0-6.919,1.354l-8.9-8.9a11.686,11.686,0,0,0,.116-1.563V50.353a11.686,11.686,0,0,0-.116-1.563l8.9-8.9a18.173,18.173,0,0,0,6.919,1.354A18.34,18.34,0,1,0,88.113,29.817l-8.9,8.9a11.829,11.829,0,0,0-1.563-.116H50.354a11.829,11.829,0,0,0-1.563.116l-8.9-8.9A18.18,18.18,0,0,0,41.241,22.9,18.342,18.342,0,1,0,22.9,41.241a18.173,18.173,0,0,0,6.919-1.354l8.9,8.9a11.686,11.686,0,0,0-.116,1.563V77.647a11.686,11.686,0,0,0,.116,1.563l-8.9,8.9A18.173,18.173,0,0,0,22.9,86.759,18.342,18.342,0,1,0,41.241,105.1a18.176,18.176,0,0,0-1.354-6.918l8.9-8.9a11.829,11.829,0,0,0,1.563.116H77.646a11.829,11.829,0,0,0,1.563-.116l8.9,8.9a18.176,18.176,0,0,0-1.354,6.918A18.342,18.342,0,1,0,105.1,86.759ZM90.259,22.9a14.917,14.917,0,1,1,10.684,14.229l9.193-9.193a7.121,7.121,0,1,0-10.071-10.071l-9.193,9.193A14.777,14.777,0,0,1,90.259,22.9Zm12.281-2.56a3.621,3.621,0,1,1,5.121,5.121L88.1,45.019A11.806,11.806,0,0,0,82.981,39.9ZM22.9,37.741a14.917,14.917,0,1,1,14.23-10.684l-9.193-9.194A7.122,7.122,0,0,0,17.864,27.935l9.193,9.193A14.768,14.768,0,0,1,22.9,37.741ZM20.339,25.46a3.621,3.621,0,0,1,5.121-5.122L45.019,39.9A11.806,11.806,0,0,0,39.9,45.019Zm17.4,79.641A14.916,14.916,0,1,1,27.058,90.872l-9.194,9.193a7.121,7.121,0,0,0,10.071,10.071l9.193-9.193A14.766,14.766,0,0,1,37.741,105.1Zm-12.281,2.56a3.621,3.621,0,1,1-5.121-5.121L39.9,82.981A11.806,11.806,0,0,0,45.019,88.1ZM50.354,85.9a8.259,8.259,0,0,1-8.25-8.249V50.353a8.259,8.259,0,0,1,8.25-8.249H77.646a8.259,8.259,0,0,1,8.25,8.249V77.647a8.259,8.259,0,0,1-8.25,8.249ZM88.1,82.981l19.559,19.559a3.621,3.621,0,0,1-5.121,5.122L82.981,88.1A11.806,11.806,0,0,0,88.1,82.981Zm17,36.962a14.786,14.786,0,0,1-14.23-19l9.193,9.194a7.122,7.122,0,0,0,10.071-10.072l-9.194-9.193a14.834,14.834,0,1,1,4.16,29.071Z" data-original="#000000" class="active-path" data-old_color="#000000" fill="#ED1651"/><path d="M64,48.716A15.284,15.284,0,1,0,79.284,64,15.3,15.3,0,0,0,64,48.716Zm0,27.068A11.784,11.784,0,1,1,75.784,64,11.8,11.8,0,0,1,64,75.784Z" data-original="#000000" class="active-path" data-old_color="#000000" fill="#ED1651"/></g></g> </svg>
