<?xml version="1.0"?>
<svg xmlns="http://www.w3.org/2000/svg" id="light" enable-background="new 0 0 24 24" height="512px" viewBox="0 0 24 24" width="512px"><g><path d="m3.5 22h-3c-.276 0-.5-.224-.5-.5v-9c0-.276.224-.5.5-.5 3.401 0 5.198 1.146 5.273 1.195.179.117.264.335.211.542l-2 7.886c-.055.222-.255.377-.484.377zm-2.5-1h2.111l1.808-7.13c-.562-.27-1.888-.786-3.919-.861z" data-original="#000000" class="active-path" data-old_color="#000000" fill="#ED1651"/><path d="m13 24c-2.36 0-6.923-1.984-9.433-3.168-.25-.117-.357-.416-.239-.665.117-.251.416-.357.665-.239 1.96.924 6.761 3.072 9.007 3.072 2.433 0 8.165-2.857 9.814-3.706-.26-.34-.797-.794-1.814-.794-.923 0-2.093.369-3.225.727-1.203.379-2.448.773-3.525.773-2.064 0-4.806-.988-4.921-1.03-.26-.094-.394-.381-.299-.641.094-.26.382-.393.641-.299.026.01 2.692.97 4.579.97.923 0 2.093-.369 3.225-.727 1.203-.379 2.448-.773 3.525-.773 2.334 0 2.949 1.767 2.975 1.842.077.231-.024.484-.239.6-.311.164-7.646 4.058-10.736 4.058z" data-original="#000000" class="active-path" data-old_color="#000000" fill="#ED1651"/><path d="m16.5 19.59c-.276 0-.5-.224-.5-.5v-.5c0-.698-.471-1.296-1.144-1.452l-9.653-2.331c-.269-.065-.434-.335-.369-.604s.336-.428.604-.369l9.649 2.33c1.125.263 1.913 1.261 1.913 2.426v.5c0 .276-.224.5-.5.5z" data-original="#000000" class="active-path" data-old_color="#000000" fill="#ED1651"/><path d="m19.5 13h-2c-.481 0-1-.369-1-1.179v-1.321c0-.585-.253-1.121-.676-1.433-1.17-.861-1.852-2.238-1.823-3.682.046-2.383 2.034-4.35 4.433-4.384 1.229-.031 2.368.442 3.235 1.296.858.846 1.331 1.974 1.331 3.175 0 1.422-.658 2.728-1.806 3.582-.434.323-.694.866-.694 1.453v1.493c0 .551-.448 1-1 1zm-1-11c-.018 0-.035 0-.053 0-1.833.026-3.412 1.585-3.446 3.404-.022 1.12.507 2.188 1.416 2.857.678.5 1.083 1.336 1.083 2.238v1.321c0 .148.036.198.036.198l1.964-.018v-1.493c0-.902.41-1.745 1.098-2.256.89-.663 1.402-1.676 1.402-2.779 0-.932-.367-1.806-1.033-2.463-.661-.652-1.535-1.009-2.467-1.009z" data-original="#000000" class="active-path" data-old_color="#000000" fill="#ED1651"/><path d="m20 11h-3c-.276 0-.5-.224-.5-.5s.224-.5.5-.5h3c.276 0 .5.224.5.5s-.224.5-.5.5z" data-original="#000000" class="active-path" data-old_color="#000000" fill="#ED1651"/></g> </svg>
