<svg xmlns="http://www.w3.org/2000/svg" xmlns:xlink="http://www.w3.org/1999/xlink" viewBox="0 0 147.01 145.72"><defs><style>.cls-1{fill:url(#linear-gradient);}.cls-2{fill:url(#linear-gradient-2);}.cls-3{fill:url(#linear-gradient-3);}.cls-4{fill:url(#linear-gradient-4);}</style><linearGradient id="linear-gradient" x1="-180.14" y1="-119.14" x2="-180.14" y2="21.7" gradientTransform="translate(180.31 209.13) rotate(45)" gradientUnits="userSpaceOnUse"><stop offset="0" stop-color="#2e3192"/><stop offset="1" stop-color="#ed1651"/></linearGradient><linearGradient id="linear-gradient-2" x1="-161.61" y1="-119.11" x2="-161.61" y2="21.69" xlink:href="#linear-gradient"/><linearGradient id="linear-gradient-3" x1="-172.34" y1="81.18" x2="-172.34" y2="20.76" gradientTransform="translate(180.31 209.13) rotate(45)" gradientUnits="userSpaceOnUse"><stop offset="0" stop-color="#ec008c"/><stop offset="1" stop-color="#ed1c24"/></linearGradient><linearGradient id="linear-gradient-4" x1="-28.01" y1="41.42" x2="-4.91" y2="41.42" gradientTransform="translate(86.43 2.44) rotate(-45)" gradientUnits="userSpaceOnUse"><stop offset="0" stop-color="#ca2254"/><stop offset="1" stop-color="#472f92"/></linearGradient></defs><g id="Camada_2" data-name="Camada 2"><g id="Layer_1" data-name="Layer 1"><path class="cls-1" d="M16.35,75.85c-1.64-1.64-3.21-3.36-4.7-5.14a9.19,9.19,0,0,1-.92-12.42l0-.06a8,8,0,0,1,1.05-1.12A56.34,56.34,0,0,1,46.92,41.17a9.2,9.2,0,0,1,1.4,18.34,37.89,37.89,0,0,0-16.78,5.41,58.15,58.15,0,0,0,96.22-53.18A9.2,9.2,0,0,1,145.89,8.6,76.55,76.55,0,0,1,16.35,75.85Z"/><path class="cls-2" d="M71.16,130.66A76.54,76.54,0,0,1,138.36,1.12a9.19,9.19,0,1,1-3.12,18.12A58.16,58.16,0,0,0,83.61,117.1a37.68,37.68,0,0,0,4.45-28.88,9.2,9.2,0,0,1,17.87-4.4,56,56,0,0,1-14.57,53s0,0,0,0a9.22,9.22,0,0,1-12.07.86A79,79,0,0,1,71.16,130.66Z"/><path class="cls-3" d="M34.5,135.4A35.19,35.19,0,0,0,43.77,102,35.22,35.22,0,0,0,1.05,144.67,35.19,35.19,0,0,0,34.5,135.4Z"/><path class="cls-4" d="M89.58,45.2c-1.67-1.67-1.19-3.61,1-4.31l19.1-6c2.26-.71,3.51.56,2.81,2.8l-6,19.1c-.7,2.25-2.64,2.73-4.31,1.06Z"/></g></g></svg>