<?xml version="1.0"?>
<svg xmlns="http://www.w3.org/2000/svg" id="Capa_1" enable-background="new 0 0 512 512" height="512px" viewBox="0 0 512 512" width="512px"><g><path d="m498.819 175.144c-17.545-17.545-46.094-17.545-63.639 0l-123.391 123.39c-.078.078-.171.136-.253.208 6.002-9.842 9.464-21.395 9.464-33.742 0-35.841-29.159-65-65-65s-65 29.159-65 65c0 12.348 3.463 23.902 9.466 33.744-.083-.073-.175-.13-.254-.208l-123.393-123.392c-17.545-17.545-46.094-17.545-63.639 0-17.546 17.546-17.546 46.094 0 63.64l137.82 137.819v100.397c0 19.299 15.701 35 35 35h140c19.299 0 35-15.701 35-35v-100.397l137.819-137.819c17.546-17.547 17.546-46.095 0-63.64zm-21.213 42.426-142.212 142.213c-2.813 2.813-4.394 6.628-4.394 10.606v106.611c0 2.757-2.243 5-5 5h-140c-2.757 0-5-2.243-5-5v-106.61c0-3.979-1.58-7.794-4.394-10.606l-142.212-142.214c-5.849-5.849-5.849-15.365 0-21.214 2.924-2.924 6.766-4.386 10.606-4.386s7.683 1.462 10.606 4.386l123.394 123.395c6.611 6.609 15.4 10.249 24.747 10.249h104.506c9.347 0 18.136-3.64 24.748-10.251l123.393-123.393c5.848-5.848 15.365-5.848 21.213 0 5.848 5.849 5.848 15.366-.001 21.214zm-256.606 47.43c0-19.299 15.701-35 35-35s35 15.701 35 35-15.701 35-35 35-35-15.701-35-35z" data-original="#000000" class="active-path" data-old_color="#000000" fill="#ED1651"/><path d="m203.138 110.662-7.459 43.491c-.965 5.627 1.349 11.314 5.968 14.671 4.618 3.354 10.742 3.799 15.797 1.142l39.057-20.534 39.057 20.534c2.195 1.153 4.592 1.723 6.979 1.723 3.11 0 6.205-.966 8.818-2.864 4.619-3.356 6.933-9.044 5.968-14.671l-7.459-43.491 31.598-30.801c4.089-3.985 5.561-9.946 3.796-15.376-1.764-5.431-6.458-9.389-12.108-10.209l-43.668-6.346-19.531-39.57c-2.527-5.12-7.741-8.361-13.451-8.361s-10.924 3.241-13.451 8.361l-19.528 39.569-43.668 6.346c-5.65.82-10.345 4.778-12.108 10.209-1.765 5.43-.293 11.391 3.796 15.376zm43.795-42.383 9.567-19.386 9.567 19.386c2.186 4.427 6.408 7.495 11.294 8.205l21.395 3.109-15.48 15.09c-3.536 3.446-5.149 8.411-4.314 13.276l3.654 21.309-19.135-10.061c-2.186-1.148-4.583-1.723-6.98-1.723s-4.795.574-6.98 1.723l-19.135 10.061 3.654-21.309c.835-4.865-.778-9.83-4.314-13.276l-15.48-15.09 21.395-3.109c4.883-.71 9.106-3.778 11.292-8.205z" data-original="#000000" class="active-path" data-old_color="#000000" fill="#ED1651"/></g> </svg>
